<?xml version="1.0" encoding="UTF-8" standalone="no"?>
<!-- Created with Inkscape (http://www.inkscape.org/) -->

<svg
   width="5.2138882mm"
   height="6.417933mm"
   viewBox="0 0 5.2138882 6.417933"
   version="1.1"
   id="svg5"
   xmlns="http://www.w3.org/2000/svg"
   xmlns:svg="http://www.w3.org/2000/svg">
  <defs
     id="defs2" />
  <g
     id="layer1"
     transform="translate(-4.659979,-3.8860544)">
    <path
       id="path950"
       style="fill:#ff061d;fill-opacity:1;stroke:#000000;stroke-width:0.264999;stroke-linejoin:round;stroke-opacity:1"
       d="m 7.1850911,4.0188761 c -0.7980643,0.00922 -1.567898,0.223529 -1.9745564,0.6428549 -1.4307578,1.4753259 1.20516,5.501503 1.9941935,5.509741 0.7890336,0.0082 3.4425168,-4.3875866 2.218986,-5.4844196 C 8.9161389,4.232037 8.0346436,4.0090601 7.1850911,4.0188761 Z M 7.2295329,4.861202 A 1.1966422,1.1966422 0 0 1 8.426359,6.0580282 1.1966422,1.1966422 0 0 1 7.2295329,7.2548543 1.1966422,1.1966422 0 0 1 6.0332235,6.0580282 1.1966422,1.1966422 0 0 1 7.2295329,4.861202 Z" />
  </g>
</svg>
